<svg width="20" height="20" viewBox="0 0 20 20" fill="none" xmlns="http://www.w3.org/2000/svg">
<path d="M7.33317 9.33337C6.44912 9.33337 5.60127 8.98218 4.97615 8.35706C4.35103 7.73194 3.99984 6.8841 3.99984 6.00004V3.33337C3.99984 3.15656 4.07008 2.98699 4.1951 2.86197C4.32012 2.73695 4.48969 2.66671 4.6665 2.66671H5.33317C5.50998 2.66671 5.67955 2.59647 5.80457 2.47145C5.9296 2.34642 5.99984 2.17685 5.99984 2.00004C5.99984 1.82323 5.9296 1.65366 5.80457 1.52864C5.67955 1.40361 5.50998 1.33337 5.33317 1.33337H4.6665C4.13607 1.33337 3.62736 1.54409 3.25229 1.91916C2.87722 2.29423 2.6665 2.80294 2.6665 3.33337V6.00004C2.66736 6.7532 2.85102 7.49489 3.2017 8.16143C3.55239 8.82796 4.05962 9.39941 4.67984 9.82671C5.27632 10.3516 5.75998 10.9921 6.10148 11.7095C6.44299 12.4269 6.63521 13.2061 6.6665 14C6.6665 15.2377 7.15817 16.4247 8.03334 17.2999C8.90851 18.175 10.0955 18.6667 11.3332 18.6667C12.5708 18.6667 13.7578 18.175 14.633 17.2999C15.5082 16.4247 15.9998 15.2377 15.9998 14V13.24C16.6283 13.0778 17.176 12.6919 17.5402 12.1547C17.9045 11.6175 18.0604 10.9659 17.9786 10.322C17.8968 9.67816 17.583 9.08622 17.096 8.65716C16.609 8.2281 15.9822 7.99138 15.3332 7.99138C14.6841 7.99138 14.0574 8.2281 13.5703 8.65716C13.0833 9.08622 12.7695 9.67816 12.6878 10.322C12.606 10.9659 12.7618 11.6175 13.1261 12.1547C13.4904 12.6919 14.0381 13.0778 14.6665 13.24V14C14.6665 14.8841 14.3153 15.7319 13.6902 16.3571C13.0651 16.9822 12.2172 17.3334 11.3332 17.3334C10.4491 17.3334 9.60127 16.9822 8.97615 16.3571C8.35103 15.7319 7.99984 14.8841 7.99984 14C8.03282 13.2052 8.22712 12.4253 8.57094 11.7078C8.91477 10.9904 9.40092 10.3504 9.99984 9.82671C10.6176 9.39793 11.1222 8.82583 11.4705 8.15939C11.8189 7.49294 12.0005 6.75202 11.9998 6.00004V3.33337C11.9998 2.80294 11.7891 2.29423 11.4141 1.91916C11.039 1.54409 10.5303 1.33337 9.99984 1.33337H9.33317C9.15636 1.33337 8.98679 1.40361 8.86177 1.52864C8.73674 1.65366 8.6665 1.82323 8.6665 2.00004C8.6665 2.17685 8.73674 2.34642 8.86177 2.47145C8.98679 2.59647 9.15636 2.66671 9.33317 2.66671H9.99984C10.1766 2.66671 10.3462 2.73695 10.4712 2.86197C10.5963 2.98699 10.6665 3.15656 10.6665 3.33337V6.00004C10.6665 6.43778 10.5803 6.87123 10.4128 7.27565C10.2453 7.68007 9.99972 8.04753 9.69019 8.35706C9.38066 8.66659 9.0132 8.91212 8.60878 9.07964C8.20436 9.24715 7.77091 9.33337 7.33317 9.33337ZM15.3332 12C14.9795 12 14.6404 11.8596 14.3904 11.6095C14.1403 11.3595 13.9998 11.0203 13.9998 10.6667C13.9998 10.3131 14.1403 9.97395 14.3904 9.7239C14.6404 9.47385 14.9795 9.33337 15.3332 9.33337C15.6868 9.33337 16.0259 9.47385 16.276 9.7239C16.526 9.97395 16.6665 10.3131 16.6665 10.6667C16.6665 11.0203 16.526 11.3595 16.276 11.6095C16.0259 11.8596 15.6868 12 15.3332 12Z" fill="#4D4D4D"/>
</svg>
